<svg xmlns="http://www.w3.org/2000/svg" xmlns:xlink="http://www.w3.org/1999/xlink" width="300" zoomAndPan="magnify" viewBox="0 0 224.87999 60" height="80" preserveAspectRatio="xMidYMid meet" version="1.0"><defs><g/><clipPath id="8b01a0fdd1"><path d="M 6 14.792969 L 79 14.792969 L 79 43.277344 L 6 43.277344 Z M 6 14.792969 " clip-rule="nonzero"/></clipPath></defs><g clip-path="url(#8b01a0fdd1)"><path fill="#3c486b" d="M 6.378906 43.3125 L 78.746094 43.3125 L 78.746094 14.792969 L 6.378906 14.792969 Z M 20.867188 39.550781 L 16.445312 39.550781 L 16.445312 35.128906 L 20.867188 35.128906 Z M 28.140625 39.550781 L 23.71875 39.550781 L 23.71875 35.128906 L 28.140625 35.128906 Z M 28.140625 31.375 L 23.71875 31.375 L 23.71875 26.953125 L 28.140625 26.953125 Z M 35.421875 39.550781 L 31 39.550781 L 31 35.128906 L 35.421875 35.128906 Z M 35.421875 31.375 L 31 31.375 L 31 26.953125 L 35.421875 26.953125 Z M 54.285156 39.550781 L 38.273438 39.550781 L 38.273438 35.128906 L 54.285156 35.128906 Z M 38.273438 31.375 L 38.273438 26.953125 L 42.695312 26.953125 L 42.695312 31.375 Z M 45.542969 31.375 L 45.542969 26.953125 L 49.964844 26.953125 L 49.964844 31.375 Z M 52.816406 31.375 L 52.816406 26.953125 L 57.238281 26.953125 L 57.238281 31.375 Z M 61.40625 39.550781 L 56.984375 39.550781 L 56.984375 35.128906 L 61.40625 35.128906 Z M 60.089844 31.375 L 60.089844 26.953125 L 64.511719 26.953125 L 64.511719 31.375 Z M 68.679688 39.550781 L 64.257812 39.550781 L 64.257812 35.128906 L 68.679688 35.128906 Z M 75.953125 39.550781 L 71.53125 39.550781 L 71.53125 35.128906 L 75.953125 35.128906 Z M 75.953125 31.375 L 67.363281 31.375 L 67.363281 26.953125 L 75.953125 26.953125 Z M 71.53125 18.558594 L 75.953125 18.558594 L 75.953125 22.980469 L 71.53125 22.980469 Z M 64.257812 18.558594 L 68.679688 18.558594 L 68.679688 22.980469 L 64.257812 22.980469 Z M 56.984375 18.558594 L 61.40625 18.558594 L 61.40625 22.980469 L 56.984375 22.980469 Z M 49.707031 18.558594 L 54.128906 18.558594 L 54.128906 22.980469 L 49.707031 22.980469 Z M 42.433594 18.558594 L 46.855469 18.558594 L 46.855469 22.980469 L 42.433594 22.980469 Z M 35.160156 18.558594 L 39.582031 18.558594 L 39.582031 22.980469 L 35.160156 22.980469 Z M 27.886719 18.558594 L 32.308594 18.558594 L 32.308594 22.980469 L 27.886719 22.980469 Z M 20.613281 18.558594 L 25.035156 18.558594 L 25.035156 22.980469 L 20.613281 22.980469 Z M 9.171875 18.558594 L 17.761719 18.558594 L 17.761719 22.980469 L 9.171875 22.980469 Z M 9.171875 26.953125 L 20.613281 26.953125 L 20.613281 31.375 L 9.171875 31.375 Z M 9.171875 35.128906 L 13.59375 35.128906 L 13.59375 39.550781 L 9.171875 39.550781 Z M 9.171875 35.128906 " fill-opacity="1" fill-rule="nonzero"/></g><path fill="#ffffff" d="M 9.171875 18.558594 L 17.761719 18.558594 L 17.761719 22.980469 L 9.171875 22.980469 Z M 9.171875 18.558594 " fill-opacity="1" fill-rule="nonzero"/><path fill="#ffffff" d="M 20.613281 18.558594 L 25.035156 18.558594 L 25.035156 22.980469 L 20.613281 22.980469 Z M 20.613281 18.558594 " fill-opacity="1" fill-rule="nonzero"/><path fill="#ffffff" d="M 27.886719 18.558594 L 32.308594 18.558594 L 32.308594 22.980469 L 27.886719 22.980469 Z M 27.886719 18.558594 " fill-opacity="1" fill-rule="nonzero"/><path fill="#ffffff" d="M 35.160156 18.558594 L 39.582031 18.558594 L 39.582031 22.980469 L 35.160156 22.980469 Z M 35.160156 18.558594 " fill-opacity="1" fill-rule="nonzero"/><path fill="#ffffff" d="M 42.433594 18.558594 L 46.855469 18.558594 L 46.855469 22.980469 L 42.433594 22.980469 Z M 42.433594 18.558594 " fill-opacity="1" fill-rule="nonzero"/><path fill="#ffffff" d="M 49.707031 18.558594 L 54.128906 18.558594 L 54.128906 22.980469 L 49.707031 22.980469 Z M 49.707031 18.558594 " fill-opacity="1" fill-rule="nonzero"/><path fill="#ffffff" d="M 56.984375 18.558594 L 61.40625 18.558594 L 61.40625 22.980469 L 56.984375 22.980469 Z M 56.984375 18.558594 " fill-opacity="1" fill-rule="nonzero"/><path fill="#ffffff" d="M 64.257812 18.558594 L 68.679688 18.558594 L 68.679688 22.980469 L 64.257812 22.980469 Z M 64.257812 18.558594 " fill-opacity="1" fill-rule="nonzero"/><path fill="#ffffff" d="M 71.53125 18.558594 L 75.953125 18.558594 L 75.953125 22.980469 L 71.53125 22.980469 Z M 71.53125 18.558594 " fill-opacity="1" fill-rule="nonzero"/><path fill="#ffffff" d="M 67.363281 26.953125 L 75.953125 26.953125 L 75.953125 31.375 L 67.363281 31.375 Z M 67.363281 26.953125 " fill-opacity="1" fill-rule="nonzero"/><path fill="#ffffff" d="M 60.089844 26.953125 L 64.511719 26.953125 L 64.511719 31.375 L 60.089844 31.375 Z M 60.089844 26.953125 " fill-opacity="1" fill-rule="nonzero"/><path fill="#ffffff" d="M 52.816406 26.953125 L 57.238281 26.953125 L 57.238281 31.375 L 52.816406 31.375 Z M 52.816406 26.953125 " fill-opacity="1" fill-rule="nonzero"/><path fill="#ffffff" d="M 45.542969 26.953125 L 49.964844 26.953125 L 49.964844 31.375 L 45.542969 31.375 Z M 45.542969 26.953125 " fill-opacity="1" fill-rule="nonzero"/><path fill="#ffffff" d="M 38.273438 26.953125 L 42.695312 26.953125 L 42.695312 31.375 L 38.273438 31.375 Z M 38.273438 26.953125 " fill-opacity="1" fill-rule="nonzero"/><path fill="#ffffff" d="M 30.992188 26.953125 L 35.414062 26.953125 L 35.414062 31.375 L 30.992188 31.375 Z M 30.992188 26.953125 " fill-opacity="1" fill-rule="nonzero"/><path fill="#ffffff" d="M 23.71875 26.953125 L 28.140625 26.953125 L 28.140625 31.375 L 23.71875 31.375 Z M 23.71875 26.953125 " fill-opacity="1" fill-rule="nonzero"/><path fill="#ffffff" d="M 9.171875 26.953125 L 20.613281 26.953125 L 20.613281 31.375 L 9.171875 31.375 Z M 9.171875 26.953125 " fill-opacity="1" fill-rule="nonzero"/><path fill="#f45050" d="M 38.273438 35.128906 L 54.285156 35.128906 L 54.285156 39.550781 L 38.273438 39.550781 Z M 38.273438 35.128906 " fill-opacity="1" fill-rule="nonzero"/><path fill="#ffffff" d="M 30.992188 35.128906 L 35.414062 35.128906 L 35.414062 39.550781 L 30.992188 39.550781 Z M 30.992188 35.128906 " fill-opacity="1" fill-rule="nonzero"/><path fill="#ffffff" d="M 23.71875 35.128906 L 28.140625 35.128906 L 28.140625 39.550781 L 23.71875 39.550781 Z M 23.71875 35.128906 " fill-opacity="1" fill-rule="nonzero"/><path fill="#ffffff" d="M 16.445312 35.128906 L 20.867188 35.128906 L 20.867188 39.550781 L 16.445312 39.550781 Z M 16.445312 35.128906 " fill-opacity="1" fill-rule="nonzero"/><path fill="#ffffff" d="M 71.53125 35.128906 L 75.953125 35.128906 L 75.953125 39.550781 L 71.53125 39.550781 Z M 71.53125 35.128906 " fill-opacity="1" fill-rule="nonzero"/><path fill="#ffffff" d="M 64.257812 35.128906 L 68.679688 35.128906 L 68.679688 39.550781 L 64.257812 39.550781 Z M 64.257812 35.128906 " fill-opacity="1" fill-rule="nonzero"/><path fill="#ffffff" d="M 56.984375 35.128906 L 61.40625 35.128906 L 61.40625 39.550781 L 56.984375 39.550781 Z M 56.984375 35.128906 " fill-opacity="1" fill-rule="nonzero"/><path fill="#ffffff" d="M 9.171875 35.128906 L 13.59375 35.128906 L 13.59375 39.550781 L 9.171875 39.550781 Z M 9.171875 35.128906 " fill-opacity="1" fill-rule="nonzero"/><g fill="#3c486b" fill-opacity="1"><g transform="translate(85.5705, 40.030469)"><g><path d="M 24.078125 0 L 16.390625 0 L 7.359375 -10.390625 L 7.359375 0 L 1.78125 0 L 1.78125 -24.484375 L 7.359375 -24.484375 L 7.359375 -14.484375 L 15.765625 -24.484375 L 22.53125 -24.484375 L 12.671875 -12.890625 Z M 24.078125 0 "/></g></g></g><g fill="#3c486b" fill-opacity="1"><g transform="translate(108.932952, 40.030469)"><g><path d="M 15.796875 -24.484375 L 15.796875 -19.59375 L 7.359375 -19.59375 L 7.359375 -14.71875 L 15.4375 -14.71875 L 15.4375 -9.828125 L 7.359375 -9.828125 L 7.359375 -4.890625 L 15.796875 -4.890625 L 15.796875 0 L 1.78125 0 L 1.78125 -24.484375 Z M 15.796875 -24.484375 "/></g></g></g><g fill="#3c486b" fill-opacity="1"><g transform="translate(126.150515, 40.030469)"><g><path d="M -0.890625 -24.484375 L 5.8125 -24.484375 L 10.921875 -16.65625 L 16.03125 -24.484375 L 22.734375 -24.484375 L 13.71875 -10.984375 L 13.71875 0 L 8.140625 0 L 8.140625 -10.984375 Z M -0.890625 -24.484375 "/></g></g></g><g fill="#3c486b" fill-opacity="1"><g transform="translate(147.999011, 40.030469)"><g><path d="M 1.78125 -24.484375 L 8.875 -24.484375 C 12.28125 -24.484375 15.1875 -23.320312 17.59375 -21 C 20.007812 -18.675781 21.21875 -15.765625 21.21875 -12.265625 C 21.21875 -8.734375 20.015625 -5.804688 17.609375 -3.484375 C 15.210938 -1.160156 12.300781 0 8.875 0 L 1.78125 0 Z M 7.359375 -4.984375 L 8.21875 -4.984375 C 10.257812 -4.984375 11.925781 -5.671875 13.21875 -7.046875 C 14.519531 -8.421875 15.179688 -10.148438 15.203125 -12.234375 C 15.203125 -14.304688 14.550781 -16.035156 13.25 -17.421875 C 11.957031 -18.804688 10.28125 -19.5 8.21875 -19.5 L 7.359375 -19.5 Z M 7.359375 -4.984375 "/></g></g></g><g fill="#3c486b" fill-opacity="1"><g transform="translate(169.911139, 40.030469)"><g/></g></g><g fill="#3c486b" fill-opacity="1"><g transform="translate(178.087683, 35.766751)"><g><path d="M 20.609375 -24.484375 L 20.609375 -8.703125 C 20.609375 -5.691406 19.796875 -3.414062 18.171875 -1.875 C 16.546875 -0.332031 14.171875 0.4375 11.046875 0.4375 C 7.921875 0.4375 5.546875 -0.332031 3.921875 -1.875 C 2.296875 -3.414062 1.484375 -5.691406 1.484375 -8.703125 L 1.484375 -24.484375 L 7.0625 -24.484375 L 7.0625 -10.328125 C 7.0625 -8.347656 7.375 -6.972656 8 -6.203125 C 8.625 -5.429688 9.640625 -5.046875 11.046875 -5.046875 C 12.453125 -5.046875 13.460938 -5.429688 14.078125 -6.203125 C 14.703125 -6.972656 15.015625 -8.347656 15.015625 -10.328125 L 15.015625 -24.484375 Z M 20.609375 -24.484375 "/></g></g></g><g fill="#3c486b" fill-opacity="1"><g transform="translate(200.168359, 35.766751)"><g><path d="M 1.78125 -24.484375 L 10.71875 -24.484375 C 13.207031 -24.484375 15.222656 -23.835938 16.765625 -22.546875 C 18.316406 -21.265625 19.09375 -19.394531 19.09375 -16.9375 C 19.09375 -14.488281 18.304688 -12.566406 16.734375 -11.171875 C 15.171875 -9.773438 13.164062 -9.078125 10.71875 -9.078125 L 7.359375 -9.078125 L 7.359375 0 L 1.78125 0 Z M 7.359375 -13.53125 L 8.9375 -13.53125 C 10.1875 -13.53125 11.207031 -13.78125 12 -14.28125 C 12.800781 -14.789062 13.203125 -15.617188 13.203125 -16.765625 C 13.203125 -17.941406 12.800781 -18.78125 12 -19.28125 C 11.207031 -19.78125 10.1875 -20.03125 8.9375 -20.03125 L 7.359375 -20.03125 Z M 7.359375 -13.53125 "/></g></g></g></svg>